<?xml version="1.0" encoding="UTF-8" standalone="no"?><!DOCTYPE svg PUBLIC "-//W3C//DTD SVG 1.1//EN" "http://www.w3.org/Graphics/SVG/1.1/DTD/svg11.dtd"><svg width="100%" height="100%" viewBox="0 0 798 163" version="1.1" xmlns="http://www.w3.org/2000/svg" xmlns:xlink="http://www.w3.org/1999/xlink" xml:space="preserve" xmlns:serif="http://www.serif.com/" style="fill-rule:evenodd;clip-rule:evenodd;stroke-linejoin:round;stroke-miterlimit:2;"><g id="Background"><path d="M31.377,108.905c-4.904,-30.652 17.336,-46.039 28.489,-49.954c13.585,-4.769 16.557,-0.124 17.807,-5.018c0.357,-1.398 1.57,-4.714 1.718,-5.12c8.937,-24.436 36.405,-47.348 73.564,-37.142c1.838,0.505 12.069,3.315 21.062,11.147c8.676,7.556 11.685,12.042 15.288,18.956c5.465,10.489 4.294,13.832 6.683,14.738c0.224,0.085 0.205,0.046 2.899,0.09c26.39,0.433 38.078,20.029 41.081,32.36c4.265,17.515 -2.822,30.807 -2.939,31.09c-2.971,7.138 -12.687,17.971 -23.217,21.769c-7.382,2.662 -10.25,2.752 -15.933,2.756c-4.8,0.002 -55.939,0.033 -60.001,-0.043c-6.41,-0.119 -7.083,0.644 -7.149,-0.492c-0.053,-0.905 0.168,-0.857 2.432,-2.725c4.207,-3.471 6.368,-6.292 7.091,-6.946c1.346,-1.216 1.604,-1.008 32.629,-1.115c28.51,-0.097 34.368,1.478 45.115,-7.123c14.09,-11.274 14.286,-29.9 9.159,-40.279c-10.59,-21.436 -32.009,-18.252 -37.296,-18.433c-7.172,-0.245 -3.512,-7.439 -9.433,-19.224c-9.363,-18.632 -25.718,-24.082 -28.604,-25.043c-30.52,-10.171 -53.966,9.313 -61.727,27.918c-3.933,9.426 -1.821,11.779 -4.165,14.959c-2.953,4.004 -13.716,-1.165 -25.915,5.237c-23.334,12.245 -21.606,40.613 -8.329,52.928c11.681,10.834 21.698,9.25 33.195,9.22c8.754,-0.023 20.455,1.403 31.21,-7.146c0.661,-0.525 14.345,-10.025 14.402,-27.282c0.011,-3.511 0.144,-43.528 0.028,-43.888c-0.708,-2.198 -2.692,0.362 -9.37,7.153c-6.935,7.053 -10.381,12.748 -15.115,8.546c-5.405,-4.799 1.345,-10.507 7.205,-16.455c6.7,-6.8 6.755,-6.703 13.451,-13.541c5.264,-5.374 8.314,-10.847 14.568,-4.186c12.617,13.438 21.487,21.366 24.411,24.558c6.318,6.898 -0.537,11.52 -3.8,10.844c-1.416,-0.293 -1.796,0.001 -18.069,-16.943c-1.936,-2.015 -2.523,-0.177 -2.442,0.933c0.192,2.631 0.263,3.602 0.244,32.977c-0.007,12.034 1.569,24.563 -11.928,39.822c-1.683,1.903 -11.505,13.008 -27.761,15.415c-0.591,0.088 -29.732,2.14 -40.004,-1.334c-20.663,-6.989 -27.065,-19.215 -30.534,-33.984Z" style="fill:#49b748;fill-opacity:0.98;"/><path d="M172.883,109.465c1.84,0.037 17.682,0.355 22.994,0.107c14.433,-0.674 13.099,-16.099 3.003,-17.591c-2.958,-0.438 -13.321,1.427 -12.803,-5.975c0.45,-6.424 7.909,-5.401 12.807,-5.312c17.446,0.317 23.158,20.947 14.631,32.014c-7.196,9.339 -16.408,8.2 -22.636,8.184c-39.649,-0.099 -40.891,0.346 -41.091,-0.877c-0.123,-0.747 2.813,-7.112 3.704,-12.091c1.166,-6.514 0.974,-23.176 0.718,-27.915c-0.118,-2.181 1.157,-2.074 1.833,-1.332c0.157,0.172 1.351,1.481 2.02,2.1c4.917,4.549 6.989,3.486 7.045,8.205c0.209,17.483 -0.196,17.477 -0.145,18.996c0.071,2.101 2.558,1.499 7.92,1.487Z" style="fill:#49b748;fill-opacity:0.99;"/><path d="M65.031,118.691c-0.62,-0.343 -0.58,-0.337 -1.183,-0.653c-7.826,-4.107 -12.755,-18.01 -6.594,-27.818c6.96,-11.08 18.999,-9.838 23.646,-9.602c0.688,0.035 6.13,0.31 5.807,6.355c-0.357,6.684 -9.665,4.992 -11.826,5.072c-11.229,0.415 -13.707,17.451 2.003,17.567c21.099,0.157 21.599,0.066 24.729,-2.021c6.266,-4.177 4.801,-12.667 4.964,-19.619c0.062,-2.64 1.502,-3.007 4.969,-5.431c2.581,-1.805 4.839,-5.025 5.916,-4.107c0.374,0.318 0.324,3.266 0.319,3.551c-0.24,14.129 0.98,21.087 -2.674,27.123c-5.585,9.224 -12.118,11.946 -22.228,11.915c-21.103,-0.066 -21.293,0.388 -27.848,-2.332Z" style="fill:#49b748;fill-opacity:0.99;"/><path d="M205.343,28.045c0.091,-0.373 0.15,-0.753 0.24,-1.126c2.808,-11.618 19.313,-9.191 19.377,2.065c0.051,9.034 -10.523,13.132 -16.229,8.182c-3.862,-3.351 -3.501,-6.534 -3.388,-9.121Z" style="fill:#49b748;fill-opacity:0.98;"/></g><g><path d="M576.628,128.793l-25.033,0c0,0 -29.897,-94.467 -29.784,-95.248c0.023,-0.158 24.551,-0.097 24.551,-0.097c0,0 17.724,60.822 18.97,60.819c1.216,-0.004 21.98,-60.819 21.98,-60.819l20.352,-0.074c0,0 19.335,61.108 19.759,61.054c0.366,-0.047 18.284,-60.979 18.284,-60.979l24.485,0c0,0 -10.946,34.532 -11.792,37.08c-0.486,1.462 -18.563,58.265 -18.563,58.265l-24.686,0c0,0 -18.059,-59.33 -18.796,-59.403c-1.787,-0.179 -19.728,59.403 -19.728,59.403Z" style="fill:#49b748;fill-opacity:0.99;"/></g><g><path d="M354.179,33.448c0,0 23.092,-0.12 23.482,-0.055c0.379,8.983 0.229,53.297 0.229,53.297c0,0 0.101,2.917 0.126,3.068c0.269,1.569 0.717,3.894 1.047,4.851c1.395,4.052 1.477,3.997 2.02,5.038c0.846,1.623 1.371,2.498 1.889,3.093c2.643,3.037 4.221,3.732 4.394,3.823c1.582,0.83 4.046,1.609 4.909,1.842c3.262,0.879 3.72,1.175 7.151,0.731c2.529,-0.328 2.537,-0.694 4.857,-1.728c2.323,-1.035 3.719,-2.183 4.264,-2.678c0.187,-0.169 2.828,-2.83 2.999,-3.018c0.311,-0.342 0.772,-0.403 1.71,-2.247c0.983,-1.933 2.047,-4.717 2.36,-6.856c0.187,-1.278 0.353,-1.248 0.361,-48.107c0.002,-11.193 -0.062,-11.052 -0.062,-11.052l23.554,0l0.228,16.047c0,0 0.442,37.089 0.33,40.91c-0.151,5.147 -0.09,5.587 -0.192,6.061c-0.146,0.677 -0.401,2.723 -0.467,3.053c-0.582,2.933 -1.214,4.152 -3.612,9.185c-0.765,1.606 -4.891,7.918 -5.043,8.104c-0.182,0.224 -2.993,3.538 -6.522,6.448c-1.92,1.583 -4.862,2.824 -5.841,3.296c-2.913,1.403 -7.949,2.933 -8.893,3.179c-1.397,0.364 -3.097,0.673 -4.786,0.807c-2.208,0.176 -4.919,0.15 -5.34,0.278c-1.336,-0.002 -3.837,0.028 -6.97,0.038c-1.985,0.006 -2.453,-0.086 -4.406,-0.692c-0.855,-0.265 -5.463,-1.38 -9.181,-2.803c-1.17,-0.448 -2.591,-1.16 -3.433,-1.544c-3.204,-1.465 -5.634,-2.988 -8.17,-5.151c-5.438,-4.639 -5.205,-4.892 -5.591,-5.378c-0.544,-0.684 -3.032,-5.153 -3.441,-6.714c-0.473,-1.798 -2.208,-6.663 -2.275,-6.927c-0.109,-0.431 -0.61,-2.285 -1.274,-4.25c-0.435,-1.287 -0.554,-1.254 -0.761,-8.833c0.534,-8.304 0.347,-55.113 0.347,-55.113Z" style="fill:#fff;fill-opacity:0.99;"/></g><g><path d="M683.558,128.793l-23.822,0l41.776,-95.344l25.093,-0.069l41.75,95.414l-25.441,0l-8.867,-21.156l-29.748,-0.114l6.496,-18.476l15.294,-0.059l-12.619,-31.416l-29.913,71.221Z" style="fill:#49b748;fill-opacity:0.98;"/></g><g><path d="M252.806,33.448c0.4,-0.365 22.346,-0.257 23.576,0.335c1.175,0.566 21.553,37.301 22.125,37.927c1.478,1.62 23.852,-38.106 23.99,-38.262c0.277,-0.312 25.999,-0.03 26.163,0c-0.126,0.286 -36.844,60.63 -36.844,60.63c0,0 -0.124,1.145 -0.122,19.802c0.001,14.284 0.032,15.672 0.032,15.672l-24.719,0l0.105,-35.626c0,0 -34.589,-60.22 -34.306,-60.478Z" style="fill:#fff;fill-opacity:0.99;"/></g><g><path d="M528.771,107.06l-0.069,21.728l-70.371,0.005l-0.239,-95.344l24.227,-0l0.427,73.348l46.026,0.264Z" style="fill:#fff;fill-opacity:0.99;"/></g><g><path d="M292.793,46.026l13.206,-0.006l-6.718,11.093l-6.489,-11.087Z" style="fill:#fff;fill-opacity:0.97;"/></g></svg>